<svg xmlns="http://www.w3.org/2000/svg" width="1320" height="570" viewBox="0 0 1320 570">
<rect width="100%" height="100%" fill="#ffffff"/>
<style>
text { font-family: -apple-system, BlinkMacSystemFont, "Segoe UI", Arial, sans-serif; fill: #0f172a; }
.title { font-size: 24px; font-weight: 700; } .subtitle { font-size: 13px; fill: #737373; }
.label { font-size: 13px; } .small { font-size: 11px; fill: #737373; } .value { font-size: 12px; font-weight: 650; }
.axis { stroke: #cbd5e1; stroke-width: 1; } .grid { stroke: #e2e8f0; stroke-width: 1; }
</style>
<text x="55" y="40" class="title">Token use across all 36 runs</text>
<text x="55" y="64" class="subtitle">Three adjacent points belong to the same task. Peaks reveal trial-level path divergence.</text>
<line x1="950" y1="48" x2="972" y2="48" stroke="#2563eb" stroke-width="3"/><circle cx="961" cy="48" r="3" fill="#2563eb"/><text x="980" y="53" class="label">nanoCursor</text>
<line x1="1075" y1="48" x2="1097" y2="48" stroke="#f97316" stroke-width="3"/><circle cx="1086" cy="48" r="3" fill="#f97316"/><text x="1105" y="53" class="label">Pi reference</text>
<line x1="75" y1="435.0" x2="1250" y2="435.0" class="grid"/>
<text x="65" y="439.0" text-anchor="end" class="small">0k</text>
<line x1="75" y1="350.0" x2="1250" y2="350.0" class="grid"/>
<text x="65" y="354.0" text-anchor="end" class="small">38k</text>
<line x1="75" y1="265.0" x2="1250" y2="265.0" class="grid"/>
<text x="65" y="269.0" text-anchor="end" class="small">76k</text>
<line x1="75" y1="180.0" x2="1250" y2="180.0" class="grid"/>
<text x="65" y="184.0" text-anchor="end" class="small">114k</text>
<line x1="75" y1="95.0" x2="1250" y2="95.0" class="grid"/>
<text x="65" y="99.0" text-anchor="end" class="small">152k</text>
<line x1="158.9" y1="95" x2="158.9" y2="435" stroke="#cbd5e1" stroke-dasharray="3 4"/>
<line x1="259.6" y1="95" x2="259.6" y2="435" stroke="#cbd5e1" stroke-dasharray="3 4"/>
<line x1="360.4" y1="95" x2="360.4" y2="435" stroke="#cbd5e1" stroke-dasharray="3 4"/>
<line x1="461.1" y1="95" x2="461.1" y2="435" stroke="#cbd5e1" stroke-dasharray="3 4"/>
<line x1="561.8" y1="95" x2="561.8" y2="435" stroke="#cbd5e1" stroke-dasharray="3 4"/>
<line x1="662.5" y1="95" x2="662.5" y2="435" stroke="#cbd5e1" stroke-dasharray="3 4"/>
<line x1="763.2" y1="95" x2="763.2" y2="435" stroke="#cbd5e1" stroke-dasharray="3 4"/>
<line x1="863.9" y1="95" x2="863.9" y2="435" stroke="#cbd5e1" stroke-dasharray="3 4"/>
<line x1="964.6" y1="95" x2="964.6" y2="435" stroke="#cbd5e1" stroke-dasharray="3 4"/>
<line x1="1065.4" y1="95" x2="1065.4" y2="435" stroke="#cbd5e1" stroke-dasharray="3 4"/>
<line x1="1166.1" y1="95" x2="1166.1" y2="435" stroke="#cbd5e1" stroke-dasharray="3 4"/>
<path d="M 75.0 345.4 L 108.6 358.2 L 142.1 383.2 L 175.7 306.7 L 209.3 276.5 L 242.9 297.6 L 276.4 347.0 L 310.0 351.8 L 343.6 347.9 L 377.1 291.5 L 410.7 347.6 L 444.3 286.7 L 477.9 256.5 L 511.4 306.5 L 545.0 281.9 L 578.6 298.4 L 612.1 183.7 L 645.7 304.7 L 679.3 296.3 L 712.9 322.4 L 746.4 306.9 L 780.0 388.8 L 813.6 398.5 L 847.1 382.7 L 880.7 406.1 L 914.3 386.0 L 947.9 367.4 L 981.4 310.6 L 1015.0 274.5 L 1048.6 271.7 L 1082.1 271.6 L 1115.7 348.6 L 1149.3 350.0 L 1182.9 363.7 L 1216.4 352.3 L 1250.0 348.0" fill="none" stroke="#2563eb" stroke-width="2.2" stroke-linejoin="round"/>
<circle cx="75.0" cy="345.4" r="2.6" fill="#2563eb"/>
<circle cx="108.6" cy="358.2" r="2.6" fill="#2563eb"/>
<circle cx="142.1" cy="383.2" r="2.6" fill="#2563eb"/>
<circle cx="175.7" cy="306.7" r="2.6" fill="#2563eb"/>
<circle cx="209.3" cy="276.5" r="2.6" fill="#2563eb"/>
<circle cx="242.9" cy="297.6" r="2.6" fill="#2563eb"/>
<circle cx="276.4" cy="347.0" r="2.6" fill="#2563eb"/>
<circle cx="310.0" cy="351.8" r="2.6" fill="#2563eb"/>
<circle cx="343.6" cy="347.9" r="2.6" fill="#2563eb"/>
<circle cx="377.1" cy="291.5" r="2.6" fill="#2563eb"/>
<circle cx="410.7" cy="347.6" r="2.6" fill="#2563eb"/>
<circle cx="444.3" cy="286.7" r="2.6" fill="#2563eb"/>
<circle cx="477.9" cy="256.5" r="2.6" fill="#2563eb"/>
<circle cx="511.4" cy="306.5" r="2.6" fill="#2563eb"/>
<circle cx="545.0" cy="281.9" r="2.6" fill="#2563eb"/>
<circle cx="578.6" cy="298.4" r="2.6" fill="#2563eb"/>
<circle cx="612.1" cy="183.7" r="2.6" fill="#2563eb"/>
<circle cx="645.7" cy="304.7" r="2.6" fill="#2563eb"/>
<circle cx="679.3" cy="296.3" r="2.6" fill="#2563eb"/>
<circle cx="712.9" cy="322.4" r="2.6" fill="#2563eb"/>
<circle cx="746.4" cy="306.9" r="2.6" fill="#2563eb"/>
<circle cx="780.0" cy="388.8" r="2.6" fill="#2563eb"/>
<circle cx="813.6" cy="398.5" r="2.6" fill="#2563eb"/>
<circle cx="847.1" cy="382.7" r="2.6" fill="#2563eb"/>
<circle cx="880.7" cy="406.1" r="2.6" fill="#2563eb"/>
<circle cx="914.3" cy="386.0" r="2.6" fill="#2563eb"/>
<circle cx="947.9" cy="367.4" r="2.6" fill="#2563eb"/>
<circle cx="981.4" cy="310.6" r="2.6" fill="#2563eb"/>
<circle cx="1015.0" cy="274.5" r="2.6" fill="#2563eb"/>
<circle cx="1048.6" cy="271.7" r="2.6" fill="#2563eb"/>
<circle cx="1082.1" cy="271.6" r="2.6" fill="#2563eb"/>
<circle cx="1115.7" cy="348.6" r="2.6" fill="#2563eb"/>
<circle cx="1149.3" cy="350.0" r="2.6" fill="#2563eb"/>
<circle cx="1182.9" cy="363.7" r="2.6" fill="#2563eb"/>
<circle cx="1216.4" cy="352.3" r="2.6" fill="#2563eb"/>
<circle cx="1250.0" cy="348.0" r="2.6" fill="#2563eb"/>
<path d="M 75.0 295.1 L 108.6 363.4 L 142.1 372.0 L 175.7 266.7 L 209.3 304.6 L 242.9 310.7 L 276.4 335.6 L 310.0 291.9 L 343.6 307.9 L 377.1 259.0 L 410.7 292.8 L 444.3 255.3 L 477.9 203.6 L 511.4 285.7 L 545.0 265.7 L 578.6 284.7 L 612.1 321.3 L 645.7 317.0 L 679.3 371.9 L 712.9 341.6 L 746.4 377.7 L 780.0 361.5 L 813.6 370.8 L 847.1 385.8 L 880.7 389.7 L 914.3 396.4 L 947.9 393.4 L 981.4 277.1 L 1015.0 111.2 L 1048.6 229.6 L 1082.1 310.6 L 1115.7 342.5 L 1149.3 346.3 L 1182.9 309.5 L 1216.4 350.6 L 1250.0 349.1" fill="none" stroke="#f97316" stroke-width="2.2" stroke-linejoin="round"/>
<circle cx="75.0" cy="295.1" r="2.6" fill="#f97316"/>
<circle cx="108.6" cy="363.4" r="2.6" fill="#f97316"/>
<circle cx="142.1" cy="372.0" r="2.6" fill="#f97316"/>
<circle cx="175.7" cy="266.7" r="2.6" fill="#f97316"/>
<circle cx="209.3" cy="304.6" r="2.6" fill="#f97316"/>
<circle cx="242.9" cy="310.7" r="2.6" fill="#f97316"/>
<circle cx="276.4" cy="335.6" r="2.6" fill="#f97316"/>
<circle cx="310.0" cy="291.9" r="2.6" fill="#f97316"/>
<circle cx="343.6" cy="307.9" r="2.6" fill="#f97316"/>
<circle cx="377.1" cy="259.0" r="2.6" fill="#f97316"/>
<circle cx="410.7" cy="292.8" r="2.6" fill="#f97316"/>
<circle cx="444.3" cy="255.3" r="2.6" fill="#f97316"/>
<circle cx="477.9" cy="203.6" r="2.6" fill="#f97316"/>
<circle cx="511.4" cy="285.7" r="2.6" fill="#f97316"/>
<circle cx="545.0" cy="265.7" r="2.6" fill="#f97316"/>
<circle cx="578.6" cy="284.7" r="2.6" fill="#f97316"/>
<circle cx="612.1" cy="321.3" r="2.6" fill="#f97316"/>
<circle cx="645.7" cy="317.0" r="2.6" fill="#f97316"/>
<circle cx="679.3" cy="371.9" r="2.6" fill="#f97316"/>
<circle cx="712.9" cy="341.6" r="2.6" fill="#f97316"/>
<circle cx="746.4" cy="377.7" r="2.6" fill="#f97316"/>
<circle cx="780.0" cy="361.5" r="2.6" fill="#f97316"/>
<circle cx="813.6" cy="370.8" r="2.6" fill="#f97316"/>
<circle cx="847.1" cy="385.8" r="2.6" fill="#f97316"/>
<circle cx="880.7" cy="389.7" r="2.6" fill="#f97316"/>
<circle cx="914.3" cy="396.4" r="2.6" fill="#f97316"/>
<circle cx="947.9" cy="393.4" r="2.6" fill="#f97316"/>
<circle cx="981.4" cy="277.1" r="2.6" fill="#f97316"/>
<circle cx="1015.0" cy="111.2" r="2.6" fill="#f97316"/>
<circle cx="1048.6" cy="229.6" r="2.6" fill="#f97316"/>
<circle cx="1082.1" cy="310.6" r="2.6" fill="#f97316"/>
<circle cx="1115.7" cy="342.5" r="2.6" fill="#f97316"/>
<circle cx="1149.3" cy="346.3" r="2.6" fill="#f97316"/>
<circle cx="1182.9" cy="309.5" r="2.6" fill="#f97316"/>
<circle cx="1216.4" cy="350.6" r="2.6" fill="#f97316"/>
<circle cx="1250.0" cy="349.1" r="2.6" fill="#f97316"/>
<text x="108.6" y="457" text-anchor="middle" transform="rotate(35 108.6 457)" class="small">astro-12907</text>
<text x="209.3" y="457" text-anchor="middle" transform="rotate(35 209.3 457)" class="small">astro-13453</text>
<text x="310.0" y="457" text-anchor="middle" transform="rotate(35 310.0 457)" class="small">django-11133</text>
<text x="410.7" y="457" text-anchor="middle" transform="rotate(35 410.7 457)" class="small">django-11141</text>
<text x="511.4" y="457" text-anchor="middle" transform="rotate(35 511.4 457)" class="small">mpl-23412</text>
<text x="612.1" y="457" text-anchor="middle" transform="rotate(35 612.1 457)" class="small">pytest-8399</text>
<text x="712.9" y="457" text-anchor="middle" transform="rotate(35 712.9 457)" class="small">requests-1142</text>
<text x="813.6" y="457" text-anchor="middle" transform="rotate(35 813.6 457)" class="small">skl-13142</text>
<text x="914.3" y="457" text-anchor="middle" transform="rotate(35 914.3 457)" class="small">skl-13328</text>
<text x="1015.0" y="457" text-anchor="middle" transform="rotate(35 1015.0 457)" class="small">sphinx-10449</text>
<text x="1115.7" y="457" text-anchor="middle" transform="rotate(35 1115.7 457)" class="small">sympy-11618</text>
<text x="1216.4" y="457" text-anchor="middle" transform="rotate(35 1216.4 457)" class="small">xarray-3677</text></svg>
